<?xml version="1.0" encoding="UTF-8"?>
<svg xmlns="http://www.w3.org/2000/svg" viewBox="0 0 320 320" width="512" height="512">

  <defs>
    <linearGradient id="g" x1="0" y1="0" x2="1" y2="1">
      <stop offset="0%" stop-color="#e8c668"></stop>
      <stop offset="100%" stop-color="#a98a2c"></stop>
    </linearGradient>
  </defs>
  <rect width="320" height="320" fill="#060e1c"></rect>
  <circle cx="160" cy="160" r="138" fill="none" stroke="rgba(212,175,55,0.18)" stroke-width="1"></circle>
  
  <path d="M 42 198 A 118 48 -22 0 1 278 122" fill="none" stroke="url(#g)" stroke-width="2.4" stroke-linecap="round" opacity="0.55"></path>
  
  <path d="M 104 64 L 168 64 A 96 96 0 0 1 168 256 L 104 256 Z M 124 84 L 124 236 L 168 236 A 76 76 0 0 0 168 84 Z" fill="#e8eef7" fill-rule="evenodd"></path>
  
  <path d="M 278 122 A 118 48 -22 0 1 42 198" fill="none" stroke="url(#g)" stroke-width="2.4" stroke-linecap="round"></path>
  
  <circle cx="266" cy="118" r="4.5" fill="#fff3d6"></circle>
  <circle cx="56" cy="208" r="3" fill="#d4af37"></circle>

</svg>